<svg xmlns="http://www.w3.org/2000/svg" viewBox="0 0 128 128"><defs><style>.cls-1{isolation:isolate;}.cls-2{mix-blend-mode:multiply;}.cls-3{fill:#7569b0;}.cls-4{fill:#489de3;}.cls-5{fill:#093357;}</style></defs><title>airplane</title><g class="cls-1"><g id="icons" class="cls-2"><path class="cls-3" d="M93.33,68.73h8.93a2,2,0,0,1,2,2V89.2a0,0,0,0,1,0,0H91.33a0,0,0,0,1,0,0V70.73A2,2,0,0,1,93.33,68.73Z" transform="translate(84.48 -46.03) rotate(45)"/><path class="cls-3" d="M42.57,20H55.5a0,0,0,0,1,0,0V38.44a2,2,0,0,1-2,2H44.57a2,2,0,0,1-2-2V20a0,0,0,0,1,0,0Z" transform="translate(62.36 86.23) rotate(-135)"/><path class="cls-4" d="M89,39,26.21,24a2.15,2.15,0,0,0-2,.57l-7.56,7.56a2.15,2.15,0,0,0,.68,3.51L70,58l22.37,52.68a2.15,2.15,0,0,0,3.51.68l7.56-7.56a2.15,2.15,0,0,0,.57-2Z"/><path class="cls-4" d="M50.94,77.06,24.67,71.22a2.15,2.15,0,0,0-2,.58l-4.51,4.51a2.15,2.15,0,0,0,.69,3.51l20.66,8.66,8.66,20.66a2.15,2.15,0,0,0,3.51.69l4.51-4.51a2.15,2.15,0,0,0,.58-2Z"/><path class="cls-5" d="M93.61,55.73c-29,29-52,42.46-57.9,36.57s7.62-29,36.57-57.9C92.47,14.2,103,13.27,108.84,19.16S113.8,35.53,93.61,55.73Z"/></g></g></svg>